<svg xmlns="http://www.w3.org/2000/svg" viewBox="0 0 268.21 100"><defs><style>.cls-1{font-size:48px;font-family:Aguda-Regular2, Aguda;}.cls-2{font-size:10px;font-family:AgudaLight, Aguda;letter-spacing:1.8em;}.cls-3{fill:none;}.cls-4{fill:#aaa;}.cls-5{fill:#891a47;}</style></defs><title>infinity-mine-concept-8-dark-red-light-shadow</title><g id="Layer_1" data-name="Layer 1"><text class="cls-1" transform="translate(97.23 64.53)">Infinity</text><text class="cls-2" transform="translate(99.82 74.45) scale(1.19 1)">GROUP</text><rect class="cls-3" x="88.21" width="180" height="100"/></g><g id="Layer_3" data-name="Layer 3"><path class="cls-4" d="M51.15,11.15a40,40,0,1,0,40,40A40,40,0,0,0,51.15,11.15ZM41.39,73.41,22.87,54.89q-3.8-3.8-3.79-7.41t3.79-7.4l7.41-7.41q3.8-3.8,7.41-3.8t7.41,3.8L63.62,51.19,60.84,54,42.32,35.45c-1.76-1.76-3.34-2.67-4.75-2.71s-3,.79-4.7,2.52l-7.4,7.41q-2.59,2.59-2.53,4.7t2.71,4.74L44.17,70.64Zm38-11L72,69.81q-3.8,3.8-7.41,3.8t-7.41-3.8L38.68,51.29l2.78-2.78L60,67c1.76,1.76,3.34,2.67,4.75,2.71s3-.79,4.7-2.52l7.41-7.41q2.59-2.6,2.52-4.7c0-1.4-1-3-2.71-4.75L58.13,31.84l2.78-2.78L79.43,47.59q3.79,3.79,3.8,7.4T79.43,62.4Z" transform="translate(-11.15 -0.15)"/><path class="cls-5" d="M53.15,10.15a40,40,0,1,0,40,40A40,40,0,0,0,53.15,10.15ZM43.39,72.41,24.87,53.89q-3.8-3.8-3.79-7.41t3.79-7.4l7.41-7.41q3.8-3.8,7.41-3.8t7.41,3.8L65.62,50.19,62.84,53,44.32,34.45c-1.76-1.76-3.34-2.67-4.75-2.71s-3,.79-4.7,2.52l-7.4,7.41q-2.59,2.59-2.53,4.7t2.71,4.74L46.17,69.64Zm38-11L74,68.81q-3.8,3.8-7.41,3.8t-7.41-3.8L40.68,50.29l2.78-2.78L62,66c1.76,1.76,3.34,2.67,4.75,2.71s3-.79,4.7-2.52l7.41-7.41q2.59-2.6,2.52-4.7c0-1.4-1-3-2.71-4.75L60.13,30.84l2.78-2.78L81.43,46.59q3.79,3.79,3.8,7.4T81.43,61.4Z" transform="translate(-11.15 -0.15)"/></g></svg>