<svg xmlns="http://www.w3.org/2000/svg" viewBox="0 0 266.21 100"><defs><style>.cls-1{fill:none;}.cls-2{fill:#7f7f7f;}</style></defs><title>infinity-mine-concept-8-expanded</title><g id="Layer_1" data-name="Layer 1"><path d="M112.23,64.67V30.12h2.88V64.67Z" transform="translate(-13.15 -0.15)"/><path d="M142.94,64.67V45.48a5.64,5.64,0,0,0-1.05-3.87c-.71-.75-1.95-1.13-3.75-1.13h-7.68c-1.79,0-3,.38-3.74,1.13a5.63,5.63,0,0,0-1.06,3.87V64.67h-2.88V45.48c0-2.63.63-4.56,1.88-5.81s3.18-1.87,5.8-1.87h7.68c2.63,0,4.56.62,5.81,1.87s1.87,3.18,1.87,5.81V64.67Z" transform="translate(-13.15 -0.15)"/><path d="M160.22,30.88c-1.53,0-2.56.28-3.07.84a4.89,4.89,0,0,0-.77,3.2V37.8H166v2.68h-9.6V64.67H153.5V34.92q0-3.6,1.56-5.16t5.16-1.56h6.72v2.68Z" transform="translate(-13.15 -0.15)"/><path d="M173.16,30.33a2.41,2.41,0,0,1,3.41,3.41,2.41,2.41,0,0,1-3.41-3.41Zm.26,34.34V37.8h2.88V64.67Z" transform="translate(-13.15 -0.15)"/><path d="M204.14,64.67V45.48a5.64,5.64,0,0,0-1-3.87c-.71-.75-2-1.13-3.75-1.13h-7.68c-1.79,0-3,.38-3.74,1.13a5.58,5.58,0,0,0-1.06,3.87V64.67H184V45.48c0-2.63.63-4.56,1.88-5.81s3.18-1.87,5.8-1.87h7.68c2.63,0,4.56.62,5.81,1.87S207,42.85,207,45.48V64.67Z" transform="translate(-13.15 -0.15)"/><path d="M214.44,30.33a2.41,2.41,0,0,1,3.41,3.41,2.43,2.43,0,0,1-3.41,0,2.43,2.43,0,0,1,0-3.41Zm.26,34.34V37.8h2.88V64.67Z" transform="translate(-13.15 -0.15)"/><path d="M232,62h6.72v2.68H232c-2.4,0-4.12-.51-5.16-1.55s-1.56-2.76-1.56-5.16V33h2.88v4.8h9.6v2.68h-9.6V58a4.88,4.88,0,0,0,.77,3.19C229.42,61.71,230.45,62,232,62Z" transform="translate(-13.15 -0.15)"/><path d="M265.82,37.8h3.07L254.25,74.29h-3.12L255,64.65l-1.43,0L242.78,37.8h3.12L255.57,62l.5,0Z" transform="translate(-13.15 -0.15)"/><path d="M118.42,69.5h-.36V69a1.29,1.29,0,0,0-.35-1,1.85,1.85,0,0,0-1.2-.3h-2.62a1.88,1.88,0,0,0-1.2.3,1.29,1.29,0,0,0-.35,1v4a1.29,1.29,0,0,0,.35,1,1.88,1.88,0,0,0,1.2.3h2.62a1.85,1.85,0,0,0,1.2-.3,1.29,1.29,0,0,0,.35-1V71.14H115.2v-.28h3.22V73a1.48,1.48,0,0,1-.46,1.21,2.22,2.22,0,0,1-1.45.39h-2.62a2.22,2.22,0,0,1-1.45-.39A1.52,1.52,0,0,1,112,73V69a1.52,1.52,0,0,1,.46-1.21,2.22,2.22,0,0,1,1.45-.39h2.62a2.22,2.22,0,0,1,1.45.39,1.48,1.48,0,0,1,.46,1.21Z" transform="translate(-13.15 -0.15)"/><path d="M148.38,70a1.48,1.48,0,0,1-.46,1.21,2.21,2.21,0,0,1-1.44.39h-.81l2.58,3h-.44l-2.58-3h-2.92v3H142V67.4h4.53a2.21,2.21,0,0,1,1.44.39,1.48,1.48,0,0,1,.46,1.21Zm-6.07,1.32h4.17a1.88,1.88,0,0,0,1.2-.3,1.29,1.29,0,0,0,.35-1V69a1.29,1.29,0,0,0-.35-1,1.88,1.88,0,0,0-1.2-.3h-4.17Z" transform="translate(-13.15 -0.15)"/><path d="M176.32,67.4a2.22,2.22,0,0,1,1.45.39,1.48,1.48,0,0,1,.46,1.21v4a1.48,1.48,0,0,1-.46,1.21,2.22,2.22,0,0,1-1.45.39H173.7a2.17,2.17,0,0,1-1.44-.39A1.48,1.48,0,0,1,171.8,73V69a1.48,1.48,0,0,1,.46-1.21,2.17,2.17,0,0,1,1.44-.39Zm1.55,5.6V69a1.26,1.26,0,0,0-.35-1,1.85,1.85,0,0,0-1.2-.3H173.7a1.83,1.83,0,0,0-1.19.3,1.26,1.26,0,0,0-.36,1v4a1.26,1.26,0,0,0,.36,1,1.83,1.83,0,0,0,1.19.3h2.62a1.85,1.85,0,0,0,1.2-.3A1.26,1.26,0,0,0,177.87,73Z" transform="translate(-13.15 -0.15)"/><path d="M207.84,67.4h.36V73a1.49,1.49,0,0,1-.47,1.21,2.21,2.21,0,0,1-1.44.39h-2.62a2.21,2.21,0,0,1-1.44-.39,1.49,1.49,0,0,1-.47-1.21V67.4h.36V73a1.29,1.29,0,0,0,.35,1,1.86,1.86,0,0,0,1.2.3h2.62a1.88,1.88,0,0,0,1.2-.3,1.29,1.29,0,0,0,.35-1Z" transform="translate(-13.15 -0.15)"/><path d="M236.31,67.4a2.24,2.24,0,0,1,1.45.39,1.48,1.48,0,0,1,.46,1.21v1a1.48,1.48,0,0,1-.46,1.21,2.24,2.24,0,0,1-1.45.39h-4.17v3h-.35V67.4Zm1.55,2.6V69a1.26,1.26,0,0,0-.35-1,1.85,1.85,0,0,0-1.2-.3h-4.17v3.64h4.17a1.85,1.85,0,0,0,1.2-.3A1.26,1.26,0,0,0,237.86,70Z" transform="translate(-13.15 -0.15)"/><rect class="cls-1" x="86.21" width="180" height="100"/></g><g id="Layer_3" data-name="Layer 3"><g id="Layer_7" data-name="Layer 7"><path class="cls-2" d="M13.15,50.15A40,40,0,0,0,70.09,86.39,40,40,0,0,0,34.22,14.91,40,40,0,0,0,13.15,50.15ZM60.91,29.06,79.43,47.59q3.79,3.79,3.8,7.4t-3.8,7.41L72,69.81q-3.8,3.8-7.41,3.8t-7.41-3.8L38.68,51.29l2.78-2.78L60,67c1.76,1.76,3.34,2.67,4.75,2.71s3-.79,4.7-2.52l7.41-7.41q2.59-2.6,2.52-4.7c0-1.4-1-3-2.71-4.75L58.13,31.84Zm-23.22-.19q3.62,0,7.41,3.8L63.62,51.19,60.84,54,42.32,35.45c-1.76-1.76-3.34-2.67-4.75-2.71s-3,.79-4.7,2.52l-7.4,7.41q-2.59,2.59-2.53,4.7t2.71,4.74L44.17,70.64l-2.78,2.77L22.87,54.89q-3.8-3.8-3.79-7.41t3.79-7.4l7.41-7.41Q34.08,28.88,37.69,28.87Z" transform="translate(-13.15 -0.15)"/></g><path d="M53.15,10.15a40,40,0,1,0,40,40A40,40,0,0,0,53.15,10.15ZM43.39,72.41,24.87,53.89q-3.8-3.8-3.79-7.41t3.79-7.4l7.41-7.41q3.8-3.8,7.41-3.8t7.41,3.8L65.62,50.19,62.84,53,44.32,34.45c-1.76-1.76-3.34-2.67-4.75-2.71s-3,.79-4.7,2.52l-7.4,7.41q-2.59,2.59-2.53,4.7t2.71,4.74L46.17,69.64Zm38-11L74,68.81q-3.8,3.8-7.41,3.8t-7.41-3.8L40.68,50.29l2.78-2.78L62,66c1.76,1.76,3.34,2.67,4.75,2.71s3-.79,4.7-2.52l7.41-7.41q2.59-2.6,2.52-4.7c0-1.4-1-3-2.71-4.75L60.13,30.84l2.78-2.78L81.43,46.59q3.79,3.79,3.8,7.4T81.43,61.4Z" transform="translate(-13.15 -0.15)"/></g></svg>