<svg id="Layer_1" data-name="Layer 1" xmlns="http://www.w3.org/2000/svg" viewBox="0 0 80 80"><defs><style>.cls-1,.cls-2,.cls-3{fill:none;stroke:#000;stroke-width:2px;}.cls-1,.cls-3{stroke-linecap:round;}.cls-1,.cls-2{stroke-miterlimit:10;}.cls-3{stroke-linejoin:round;}</style></defs><title>Artboard 1</title><path d="M60,49V67H20V49h7.91L36,61.62A3,3,0,0,0,38.55,63h2.9A3,3,0,0,0,44,61.62L52.09,49H60m0-2H52.09a2,2,0,0,0-1.68.92L42.3,60.54a1,1,0,0,1-.85.46h-2.9a1,1,0,0,1-.85-.46L29.59,47.92A2,2,0,0,0,27.91,47H20a2,2,0,0,0-2,2V67a2,2,0,0,0,2,2H60a2,2,0,0,0,2-2V49a2,2,0,0,0-2-2Z"/><path class="cls-1" d="M21,35,39.29,53.29a1,1,0,0,0,1.42,0L59,35"/><path class="cls-2" d="M36,23V43.74a1,1,0,0,0,.29.68l3,2.88a1,1,0,0,0,1.42,0l3-2.88a1,1,0,0,0,.29-.68V23"/><polyline class="cls-3" points="48 13 48 23 32 23 32 13"/></svg>