<?xml version="1.0" standalone="no"?>
<!DOCTYPE svg PUBLIC "-//W3C//DTD SVG 20010904//EN"
 "http://www.w3.org/TR/2001/REC-SVG-20010904/DTD/svg10.dtd">
<svg version="1.0" xmlns="http://www.w3.org/2000/svg"
 width="81.000000pt" height="81.000000pt" viewBox="0 0 81.000000 81.000000"
 preserveAspectRatio="xMidYMid meet">
<metadata>
Created by potrace 1.11, written by Peter Selinger 2001-2013
</metadata>
<g transform="translate(0.000000,81.000000) scale(0.100000,-0.100000)"
fill="#000000" stroke="none">
<path d="M283 789 c-162 -51 -276 -207 -275 -379 1 -227 177 -402 403 -401
322 1 506 365 321 633 -95 138 -282 199 -449 147z m136 -273 c95 -94 112 -116
98 -122 -14 -5 -43 18 -126 99 -85 85 -111 105 -128 101 -12 -3 -49 -35 -83
-70 -51 -53 -60 -68 -54 -86 4 -13 51 -68 106 -122 92 -94 106 -115 82 -123
-6 -2 -58 46 -117 106 -132 136 -135 148 -54 237 59 65 101 94 136 94 18 0 57
-32 140 -114z m193 5 c54 -55 102 -111 108 -125 14 -39 -3 -73 -71 -139 -73
-70 -100 -82 -138 -63 -30 16 -221 203 -221 217 0 30 34 8 120 -77 109 -108
122 -118 149 -109 29 9 131 121 131 144 0 13 -40 61 -105 127 -96 98 -113 124
-83 124 6 0 56 -45 110 -99z"/>
</g>
</svg>
