<svg id="Layer_1" data-name="Layer 1" xmlns="http://www.w3.org/2000/svg" viewBox="0 0 80 80"><defs><style>.cls-1,.cls-2,.cls-3{fill:none;}.cls-1,.cls-2{stroke:#000;stroke-miterlimit:10;stroke-width:2px;}.cls-2{stroke-linecap:round;}</style></defs><title>Artboard 1</title><line class="cls-1" x1="42.07" y1="43.66" x2="59.83" y2="31.63"/><line class="cls-1" x1="46.45" y1="19.58" x2="36.34" y2="38.5"/><line class="cls-2" x1="38.53" y1="41.82" x2="24.48" y2="57.42"/><ellipse class="cls-3" cx="24.4" cy="57.51" rx="3.79" ry="5" transform="translate(-34.67 37.15) rotate(-47.99)"/><line class="cls-2" x1="29.16" y1="56.71" x2="36.7" y2="54.32"/><line class="cls-2" x1="29.63" y1="59.17" x2="37.37" y2="61.04"/><line class="cls-2" x1="28.11" y1="60.86" x2="34.8" y2="66.88"/><line class="cls-2" x1="40.61" y1="61.92" x2="40.61" y2="61.92"/><line class="cls-2" x1="24.7" y1="52.69" x2="26.02" y2="46.74"/><line class="cls-2" x1="22.2" y1="52.48" x2="17.82" y2="42.41"/><line class="cls-2" x1="20.68" y1="54.17" x2="12.51" y2="46.81"/><line class="cls-2" x1="26.57" y1="43.15" x2="26.57" y2="43.15"/><line class="cls-2" x1="15.78" y1="67.08" x2="21.36" y2="60.89"/><ellipse class="cls-3" cx="24.4" cy="57.51" rx="3.79" ry="5" transform="translate(-34.67 37.15) rotate(-47.99)"/><line class="cls-2" x1="19.63" y1="58.32" x2="12.1" y2="60.71"/><line class="cls-2" x1="19.16" y1="55.86" x2="11.43" y2="53.99"/><line class="cls-2" x1="8.18" y1="53.11" x2="8.18" y2="53.11"/><line class="cls-2" x1="24.09" y1="62.34" x2="22.5" y2="70.08"/><line class="cls-2" x1="26.59" y1="62.55" x2="30.98" y2="72.62"/><ellipse class="cls-1" cx="39.2" cy="41.08" rx="2" ry="4" transform="translate(-17.56 42.72) rotate(-47.99)"/><path class="cls-1" d="M59.9,31.46a2.34,2.34,0,0,1-.29.41"/><path class="cls-1" d="M46.23,19.82c1.67-1.84,6-.65,9.7,2.68,3.45,3.1,5.11,7,4,9"/><path class="cls-2" d="M41.1,30c1.3-1.43,4.28-.85,6.68,1.31A8.84,8.84,0,0,1,49.84,34a6.8,6.8,0,0,1,.33.88"/><path class="cls-2" d="M43.09,24.81c-1.28-3.13-1.21-6.13.51-8,2.95-3.28,9.68-2,15,2.76s7.26,11.36,4.31,14.64c-1.72,1.91-4.7,2.29-7.94,1.34"/><path class="cls-2" d="M49,10.83c3-3.28,9.68-2.05,15,2.75S71.23,25,68.27,28.23"/><line class="cls-2" x1="49.62" y1="10.09" x2="44.27" y2="16.03"/><line class="cls-2" x1="68.94" y1="27.49" x2="63.59" y2="33.43"/></svg>