<svg id="Layer_1" data-name="Layer 1" xmlns="http://www.w3.org/2000/svg" viewBox="0 0 80 80"><defs><style>.cls-1,.cls-2{fill:none;}.cls-1{stroke:#000;stroke-linecap:round;stroke-miterlimit:10;stroke-width:2px;}</style></defs><title>Artboard 1</title><path class="cls-1" d="M25,13H55a0,0,0,0,1,0,0V31a2,2,0,0,1-2,2H27a2,2,0,0,1-2-2V13A0,0,0,0,1,25,13Z"/><line class="cls-1" x1="37" y1="46" x2="37" y2="34"/><polyline class="cls-1" points="37 53 37 52 37 50"/><line class="cls-1" x1="37" y1="60" x2="37" y2="57"/><polyline class="cls-1" points="43 62 43 62 43 64 37 64"/><line class="cls-1" x1="43" y1="55" x2="43" y2="58"/><polyline class="cls-1" points="43 48 43 49 43 51"/><line class="cls-1" x1="43" y1="34" x2="43" y2="44"/><path class="cls-2" d="M45,22.93V27a1,1,0,0,1-1,1H36a1,1,0,0,1-1-1V22.93a3.9,3.9,0,0,1,2-2.17,7.37,7.37,0,0,1,6,0"/><line class="cls-1" x1="32" y1="13" x2="32" y2="33"/><line class="cls-1" x1="48" y1="33" x2="48" y2="13"/><rect class="cls-1" x="29" y="9" width="22" height="3"/><line class="cls-1" x1="29" y1="9" x2="26" y2="6"/><line class="cls-1" x1="51" y1="9" x2="54" y2="6"/><line class="cls-1" x1="37" y1="64" x2="43" y2="58"/><line class="cls-1" x1="37" y1="57" x2="43" y2="51"/><line class="cls-1" x1="37" y1="50" x2="43" y2="44"/><path class="cls-1" d="M25,58H15"/><path class="cls-1" d="M55,58h0A10,10,0,0,1,45,68H35A10,10,0,0,1,25,58"/><line class="cls-1" x1="65" y1="58" x2="55" y2="58"/><line class="cls-1" x1="15" y1="73" x2="65" y2="73"/><line class="cls-1" x1="25" y1="50" x2="25" y2="50"/><line class="cls-1" x1="25" y1="45" x2="25" y2="45"/><line class="cls-1" x1="61" y1="54" x2="61" y2="54"/><line class="cls-1" x1="56" y1="46" x2="56" y2="46"/><line class="cls-1" x1="54" y1="52" x2="54" y2="52"/><line class="cls-1" x1="63" y1="48" x2="63" y2="48"/><line class="cls-1" x1="50" y1="56" x2="50" y2="56"/><line class="cls-1" x1="16" y1="47" x2="16" y2="47"/><line class="cls-1" x1="29" y1="51" x2="29" y2="51"/><line class="cls-1" x1="19" y1="52" x2="19" y2="52"/><line class="cls-1" x1="31" y1="57" x2="31" y2="57"/></svg>