<svg id="Layer_1" data-name="Layer 1" xmlns="http://www.w3.org/2000/svg" viewBox="0 0 80 80"><defs><style>.cls-1,.cls-2{fill:none;stroke:#000;stroke-miterlimit:10;stroke-width:2px;}.cls-2{stroke-linecap:round;}</style></defs><title>Artboard 1</title><path class="cls-1" d="M39.32,29.58,48.65,21c.92-.93,4.53,1.18,5.44,2.1l1.58,1.57c.91.91,3,4.52,2.09,5.44l-8.54,9.33"/><rect class="cls-1" x="32.44" y="33.36" width="18" height="8" rx="1" ry="1" transform="translate(38.55 -18.36) rotate(45)"/><path class="cls-1" d="M33.67,35.23,18.24,50.66a2.25,2.25,0,0,0,.11,3.19l6.6,6.6a2.25,2.25,0,0,0,3.19.11L43.57,45.13"/><path class="cls-1" d="M19.52,55l-9.09,9.09c-.83.84-.38,2.65.14,3.17l.94.94c.52.52,2.33,1,3.17.14l9.09-9.09"/><line class="cls-2" x1="26.6" y1="56.45" x2="37.91" y2="45.13"/><line class="cls-2" x1="48.52" y1="34.53" x2="47.1" y2="35.94"/><line class="cls-2" x1="44.27" y1="30.28" x2="42.86" y2="31.7"/><path class="cls-2" d="M55.59,34.53,66.81,45.75a1.08,1.08,0,0,1,.09,1.51l-2.12,2.12a1.08,1.08,0,0,1-1.51-.1L52.05,38.06"/><path class="cls-1" d="M58.52,44.53a18.08,18.08,0,0,1-12.9,1.38"/><path class="cls-1" d="M32.89,33.18A18,18,0,1,1,63,41.24l-.36.35"/></svg>