<svg id="Layer_1" data-name="Layer 1" xmlns="http://www.w3.org/2000/svg" viewBox="0 0 80 80"><defs><style>.cls-1,.cls-2,.cls-3{fill:none;}.cls-1,.cls-2,.cls-3,.cls-4{stroke:#000;stroke-miterlimit:10;}.cls-1,.cls-2,.cls-4{stroke-width:2px;}.cls-2,.cls-3,.cls-4{stroke-linecap:round;}.cls-3{stroke-width:4px;}.cls-4{fill:#fff;}</style></defs><title>Artboard 1</title><path class="cls-1" d="M40.35,30.25l8.08-7.41c.8-.8,3.9,1,4.68,1.78L54.46,26c.78.78,2.58,3.88,1.78,4.68l-7.4,8.08"/><rect class="cls-1" x="34.12" y="33.46" width="16" height="7" rx="1" ry="1" transform="translate(38.47 -18.96) rotate(45)"/><path class="cls-1" d="M34.69,35.9,20.55,50a2,2,0,0,0,0,2.83l5.66,5.66a2,2,0,0,0,2.83,0L43.18,44.39"/><path class="cls-1" d="M21.26,53.58l-7.78,9.19c-.78.78-1,1.84-.47,2.36l.94.94c.52.52,1.58.31,2.36-.47l9.19-7.78"/><line class="cls-2" x1="28.33" y1="54.99" x2="38.94" y2="44.39"/><line class="cls-3" x1="41.76" y1="33.07" x2="46.01" y2="37.32"/><path class="cls-1" d="M34.57,32.86A17,17,0,1,1,46.51,44.59"/><line class="cls-2" x1="48.13" y1="33.78" x2="46.71" y2="35.2"/><line class="cls-2" x1="45.3" y1="30.95" x2="43.89" y2="32.37"/><path class="cls-4" d="M56.61,36.61l9.24,9.24a.87.87,0,0,1,.1,1.22l-1.7,1.7A.87.87,0,0,1,63,48.68l-9.24-9.24"/><polyline class="cls-4" points="55.91 35.9 53.79 33.78 50.96 36.61 53.08 38.73"/><line class="cls-2" x1="58.74" y1="34.49" x2="51.66" y2="41.56"/><line class="cls-2" x1="67.22" y1="45.8" x2="62.98" y2="50.04"/><line class="cls-2" x1="13.48" y1="65.6" x2="7" y2="68"/></svg>