<svg id="Layer_1" data-name="Layer 1" xmlns="http://www.w3.org/2000/svg" viewBox="0 0 80 80"><defs><style>.cls-1,.cls-2,.cls-3{fill:none;}.cls-1,.cls-2,.cls-3,.cls-4{stroke:#000;stroke-miterlimit:10;}.cls-1,.cls-2,.cls-4{stroke-width:2px;}.cls-2,.cls-3,.cls-4{stroke-linecap:round;}.cls-3{stroke-width:4px;}.cls-4{fill:#fff;}</style></defs><title>Artboard 1</title><path class="cls-1" d="M40.68,31.38,48.76,24c.8-.8,3.9,1,4.68,1.78l1.35,1.35c.78.78,2.58,3.88,1.78,4.68l-7.4,8.08"/><rect class="cls-1" x="34.45" y="34.6" width="16" height="7" rx="1" ry="1" transform="translate(39.37 -18.86) rotate(45)"/><path class="cls-1" d="M35,37,20.88,51.18a2,2,0,0,0,0,2.83l5.66,5.66a2,2,0,0,0,2.83,0L43.51,45.53"/><path class="cls-1" d="M21.59,54.72l-7.78,9.19c-.78.78-1,1.84-.47,2.36l.94.94c.52.52,1.58.31,2.36-.47L25.83,59"/><line class="cls-2" x1="28.66" y1="56.13" x2="39.27" y2="45.53"/><line class="cls-3" x1="42.1" y1="34.21" x2="46.34" y2="38.45"/><path class="cls-1" d="M35.91,33.68a16,16,0,1,1,11.24,11"/><path class="cls-1" d="M38.39,30.85a13,13,0,1,1,11.7,11.36"/><line class="cls-2" x1="48.46" y1="34.92" x2="47.05" y2="36.33"/><line class="cls-2" x1="45.63" y1="32.09" x2="44.22" y2="33.5"/><path class="cls-4" d="M57,37.75l8.57,8.58a.84.84,0,0,1,0,1.18L63.88,49.2a.84.84,0,0,1-1.18-.05l-8.58-8.57"/><polyline class="cls-4" points="56.24 37.04 54.12 34.92 51.29 37.75 53.41 39.87"/><line class="cls-2" x1="58.36" y1="34.92" x2="51.29" y2="41.99"/><line class="cls-2" x1="66.84" y1="46.23" x2="62.6" y2="50.47"/><line class="cls-2" x1="13.81" y1="66.74" x2="8" y2="71"/></svg>