<svg id="Layer_1" data-name="Layer 1" xmlns="http://www.w3.org/2000/svg" viewBox="0 0 80 80"><defs><style>.cls-1,.cls-2,.cls-3{fill:none;}.cls-1,.cls-2{stroke:#000;stroke-miterlimit:10;stroke-width:2px;}.cls-1{stroke-linecap:round;}</style></defs><title>Artboard 1</title><polyline class="cls-1" points="50 28 27 28 27 23"/><polyline class="cls-1" points="53 23 53 28 49 28"/><polyline class="cls-2" points="29 29 29 37 38 46 42 46 51 37 51 29"/><line class="cls-1" x1="18" y1="22" x2="62" y2="22"/><polyline class="cls-2" points="24 21 24 16 56 16 56 21"/><line class="cls-1" x1="29" y1="37" x2="37" y2="37"/><polyline class="cls-2" points="24 16 21 16 19 10 19 6"/><polyline class="cls-2" points="56 16 59 16 61 10 61 6"/><line class="cls-1" x1="19" y1="10" x2="25" y2="10"/><line class="cls-1" x1="28" y1="19" x2="28" y2="19"/><line class="cls-1" x1="34" y1="19" x2="34" y2="19"/><line class="cls-1" x1="40" y1="19" x2="40" y2="19"/><line class="cls-1" x1="46" y1="19" x2="46" y2="19"/><line class="cls-1" x1="52" y1="19" x2="52" y2="19"/><line class="cls-1" x1="40" y1="49" x2="40" y2="67"/><circle class="cls-3" cx="40" cy="70" r="5"/><line class="cls-1" x1="43" y1="65" x2="47" y2="56"/><line class="cls-1" x1="45" y1="67" x2="52" y2="62"/><line class="cls-1" x1="45" y1="70" x2="54" y2="70"/><line class="cls-1" x1="55" y1="60" x2="55" y2="60"/><line class="cls-1" x1="37" y1="65" x2="34" y2="58"/><line class="cls-1" x1="35" y1="67" x2="25" y2="61"/><line class="cls-1" x1="35" y1="70" x2="24" y2="70"/><line class="cls-1" x1="32" y1="54" x2="32" y2="54"/></svg>