<svg xmlns="http://www.w3.org/2000/svg" viewBox="0 0 279.86 100.15"><defs><style>.cls-1{fill:none;}.cls-2{fill:#fff;}</style></defs><title>infinity-mine-concept-9-rect</title><g id="Layer_1" data-name="Layer 1"><path d="M112.23,64.67V30.12h2.88V64.67Z" transform="translate(0.5)"/><path d="M142.94,64.67V45.48a5.64,5.64,0,0,0-1.05-3.87c-.71-.75-1.95-1.13-3.75-1.13h-7.68c-1.79,0-3,.38-3.74,1.13a5.63,5.63,0,0,0-1.06,3.87V64.67h-2.88V45.48c0-2.63.63-4.56,1.88-5.81s3.18-1.87,5.8-1.87h7.68c2.63,0,4.56.62,5.81,1.87s1.87,3.18,1.87,5.81V64.67Z" transform="translate(0.5)"/><path d="M160.22,30.88c-1.53,0-2.56.28-3.07.84a4.89,4.89,0,0,0-.77,3.2V37.8H166v2.68h-9.6V64.67H153.5V34.92q0-3.6,1.56-5.16t5.16-1.56h6.72v2.68Z" transform="translate(0.5)"/><path d="M173.16,30.33a2.41,2.41,0,0,1,3.41,3.41,2.41,2.41,0,0,1-3.41-3.41Zm.26,34.34V37.8h2.88V64.67Z" transform="translate(0.5)"/><path d="M204.14,64.67V45.48a5.64,5.64,0,0,0-1-3.87c-.71-.75-2-1.13-3.75-1.13h-7.68c-1.79,0-3,.38-3.74,1.13a5.58,5.58,0,0,0-1.06,3.87V64.67H184V45.48c0-2.63.63-4.56,1.88-5.81s3.18-1.87,5.8-1.87h7.68c2.63,0,4.56.62,5.81,1.87S207,42.85,207,45.48V64.67Z" transform="translate(0.5)"/><path d="M214.44,30.33a2.41,2.41,0,0,1,3.41,3.41,2.43,2.43,0,0,1-3.41,0,2.43,2.43,0,0,1,0-3.41Zm.26,34.34V37.8h2.88V64.67Z" transform="translate(0.5)"/><path d="M232,62h6.72v2.68H232c-2.4,0-4.12-.51-5.16-1.55s-1.56-2.76-1.56-5.16V33h2.88v4.8h9.6v2.68h-9.6V58a4.88,4.88,0,0,0,.77,3.19C229.42,61.71,230.45,62,232,62Z" transform="translate(0.5)"/><path d="M265.82,37.8h3.07L254.25,74.29h-3.12L255,64.65l-1.43,0L242.78,37.8h3.12L255.57,62l.5,0Z" transform="translate(0.5)"/><path d="M157.82,69.5h-.24V69a1.66,1.66,0,0,0-.24-1,1,1,0,0,0-.8-.3h-1.76a.94.94,0,0,0-.8.3,1.66,1.66,0,0,0-.24,1v4a1.66,1.66,0,0,0,.24,1,.94.94,0,0,0,.8.3h1.76a1,1,0,0,0,.8-.3,1.66,1.66,0,0,0,.24-1V71.14h-1.92v-.28h2.16V73a1.91,1.91,0,0,1-.31,1.21,1.17,1.17,0,0,1-1,.39h-1.76a1.16,1.16,0,0,1-1-.39A1.91,1.91,0,0,1,153.5,73V69a1.91,1.91,0,0,1,.31-1.21,1.16,1.16,0,0,1,1-.39h1.76a1.17,1.17,0,0,1,1,.39,1.91,1.91,0,0,1,.31,1.21Z" transform="translate(0.5)"/><path d="M177.93,70a2,2,0,0,1-.31,1.21,1.17,1.17,0,0,1-1,.39h-.54l1.73,3h-.3l-1.73-3h-2v3h-.24V67.4h3a1.17,1.17,0,0,1,1,.39,2,2,0,0,1,.31,1.21Zm-4.08,1.32h2.8a.94.94,0,0,0,.8-.3,1.66,1.66,0,0,0,.24-1V69a1.66,1.66,0,0,0-.24-1,.94.94,0,0,0-.8-.3h-2.8Z" transform="translate(0.5)"/><path d="M196.68,67.4a1.16,1.16,0,0,1,1,.39A1.91,1.91,0,0,1,198,69v4a1.91,1.91,0,0,1-.31,1.21,1.16,1.16,0,0,1-1,.39h-1.76a1.16,1.16,0,0,1-1-.39,1.91,1.91,0,0,1-.31-1.21V69a1.91,1.91,0,0,1,.31-1.21,1.16,1.16,0,0,1,1-.39Zm1,5.6V69a1.66,1.66,0,0,0-.24-1,.94.94,0,0,0-.8-.3h-1.76a.94.94,0,0,0-.8.3,1.66,1.66,0,0,0-.24,1v4a1.66,1.66,0,0,0,.24,1,.94.94,0,0,0,.8.3h1.76a.94.94,0,0,0,.8-.3A1.66,1.66,0,0,0,197.72,73Z" transform="translate(0.5)"/><path d="M217.83,67.4h.24V73a1.91,1.91,0,0,1-.31,1.21,1.17,1.17,0,0,1-1,.39H215a1.17,1.17,0,0,1-1-.39,2,2,0,0,1-.31-1.21V67.4H214V73a1.66,1.66,0,0,0,.24,1,.94.94,0,0,0,.8.3h1.76a.94.94,0,0,0,.8-.3,1.66,1.66,0,0,0,.24-1Z" transform="translate(0.5)"/><path d="M236.94,67.4a1.17,1.17,0,0,1,1,.39,1.91,1.91,0,0,1,.31,1.21v1a1.91,1.91,0,0,1-.31,1.21,1.17,1.17,0,0,1-1,.39h-2.8v3h-.24V67.4Zm1,2.6V69a1.66,1.66,0,0,0-.24-1,.94.94,0,0,0-.8-.3h-2.8v3.64h2.8a.94.94,0,0,0,.8-.3A1.66,1.66,0,0,0,238,70Z" transform="translate(0.5)"/><rect class="cls-1" x="99.86" y="0.15" width="180" height="100"/></g><g id="Layer_9" data-name="Layer 9"><rect width="150" height="100"/></g><g id="Layer_11" data-name="Layer 11"><ellipse class="cls-2" cx="54" cy="50.5" rx="35" ry="34.54"/></g><g id="Layer_3" data-name="Layer 3"><path d="M53.15,10.15a40,40,0,1,0,40,40A40,40,0,0,0,53.15,10.15ZM43.39,72.41,24.87,53.89q-3.8-3.8-3.79-7.41t3.79-7.4l7.41-7.41q3.8-3.8,7.41-3.8t7.41,3.8L65.62,50.19,62.84,53,44.32,34.45c-1.76-1.76-3.34-2.67-4.75-2.71s-3,.79-4.7,2.52l-7.4,7.41q-2.59,2.59-2.53,4.7t2.71,4.74L46.17,69.64Zm38-11L74,68.81q-3.8,3.8-7.41,3.8t-7.41-3.8L40.68,50.29l2.78-2.78L62,66c1.76,1.76,3.34,2.67,4.75,2.71s3-.79,4.7-2.52l7.41-7.41q2.59-2.6,2.52-4.7c0-1.4-1-3-2.71-4.75L60.13,30.84l2.78-2.78L81.43,46.59q3.79,3.79,3.8,7.4T81.43,61.4Z" transform="translate(0.5)"/></g><g id="Layer_10" data-name="Layer 10"><path class="cls-2" d="M112.23,64.67V30.12h2.88V64.67Z" transform="translate(0.5)"/><path class="cls-2" d="M142.94,64.67V45.48a5.64,5.64,0,0,0-1.05-3.87c-.71-.75-1.95-1.13-3.75-1.13h-7.68c-1.79,0-3,.38-3.74,1.13a5.63,5.63,0,0,0-1.06,3.87V64.67h-2.88V45.48c0-2.63.63-4.56,1.88-5.81s3.18-1.87,5.8-1.87h7.68c2.63,0,4.56.62,5.81,1.87s1.87,3.18,1.87,5.81V64.67Z" transform="translate(0.5)"/></g></svg>