<svg id="Vrstva_1" data-name="Vrstva 1" xmlns="http://www.w3.org/2000/svg" viewBox="0 0 360 98.75"><defs><style>.cls-1{fill:none;}.cls-2{fill:#965252;}</style></defs><title>Kreslicí plátno 2small</title><rect class="cls-1" x="-832.33" y="-507.49" width="1971.22" height="1096.49" rx="12" ry="12"/><path class="cls-2" d="M109.35,9.55A7.36,7.36,0,1,1,109.52,20,7.63,7.63,0,0,1,107.28,15,7.55,7.55,0,0,1,109.35,9.55Zm-.6,17.29h11.78V73.27H108.75Z"/><path class="cls-2" d="M128.44,37.93a19.46,19.46,0,0,1,.17-2.15c.95-5.93,4.39-8.94,10.92-8.94h16.34c6.54,0,10,3,10.92,8.94a17.32,17.32,0,0,1,.18,2.15V73.27H155.18V41.89a2.25,2.25,0,0,0-.08-.69c-.26-1.81-1.29-2.58-3.79-2.58H144c-2.5,0-3.53.77-3.79,2.58V73.27H128.44Z"/><path class="cls-2" d="M175,20.13c0-5.84,5-10.58,12.55-10.58H195V20.82h-4.48c-.17,0-.43.08-.6.08-2.15.35-3.18,1.55-3.18,3.45v2.49h20.52V38.62H186.77V73.27H175Z"/><path class="cls-2" d="M202.28,9.55A7.36,7.36,0,1,1,202.45,20,7.62,7.62,0,0,1,200.22,15,7.5,7.5,0,0,1,202.28,9.55Zm-.6,17.29h11.78V73.27H201.68Z"/><path class="cls-2" d="M221.37,37.93a19.46,19.46,0,0,1,.17-2.15c1-5.93,4.39-8.94,10.93-8.94H248.8c6.54,0,10,3,10.92,8.94a17.3,17.3,0,0,1,.17,2.15V73.27H248.11V41.89a2.25,2.25,0,0,0-.08-.69c-.26-1.81-1.29-2.58-3.79-2.58h-7.31c-2.49,0-3.52.77-3.78,2.58V73.27H221.37Z"/><path class="cls-2" d="M268.46,9.55A7.36,7.36,0,1,1,268.64,20a7.46,7.46,0,0,1-.18-10.49Zm-.6,17.29h11.78V73.27H267.86Z"/><path class="cls-2" d="M288.11,9.47h11.78V26.84H316V38.62h-16.1V73.27H288.11Z"/><path class="cls-2" d="M5.61,78.86H337.28a1.61,1.61,0,0,0,.69-.09A3.09,3.09,0,0,0,340.63,76V73.27H325.41c-4.72,0-7.22-1.2-10.06-5.24-1.11-1.64-1.63-3.44-1.63-6.54V26.84H325.5v31c0,2.5,1.12,3.7,3.18,3.7H337a2.25,2.25,0,0,0,.69-.08,3.28,3.28,0,0,0,2.92-2.84V26.84h11.7V78a10.67,10.67,0,0,1-.17,2.32c-.78,5.68-3.7,9-8.51,10.06a11,11,0,0,1-2.41.26H5.61Z"/><path class="cls-2" d="M79.23,26.82c-10.6,0-17.12,6-23.51,12l8.38,8.74c4.21-4.06,8.79-8,14.17-8s9.63,4.27,9.63,10.33A10.16,10.16,0,0,1,77.85,60.13c-6.46,0-11.69-6.33-16-10.46l0,0-8.55-8.92c-6.71-6.44-14.52-13.91-24.64-13.91-14,0-23.26,10.74-23.26,23,0,13.07,9,23,22.16,23,10.61,0,17.13-6,23.51-12l-8.38-8.74c-4.21,4.06-8.79,8-14.17,8S19,55.86,19,49.81A10.17,10.17,0,0,1,29,39.48c5.91,0,10.79,5.29,14.84,9.36.38.38.75.75,1.12,1.1l0,0,8.58,8.95C60.23,65.34,68,72.79,78.13,72.79c14,0,23.26-10.74,23.26-23C101.39,36.73,92.44,26.82,79.23,26.82Z"/></svg>