<svg id="Vrstva_1" data-name="Vrstva 1" xmlns="http://www.w3.org/2000/svg" viewBox="0 0 1090 288"><defs><style>.cls-1{fill:none;}.cls-2{fill:#965252;}</style></defs><title>Kreslicí plátno 2</title><rect class="cls-1" x="-469.06" y="-412.24" width="1971.22" height="1096.49" rx="12" ry="12"/><path class="cls-2" d="M331.41,24.71a22.3,22.3,0,1,1,.52,31.79,23,23,0,0,1-6.77-15.37A22.75,22.75,0,0,1,331.41,24.71Zm-1.82,52.38h35.7V217.8h-35.7Z"/><path class="cls-2" d="M389.27,110.71a55.07,55.07,0,0,1,.52-6.52c2.87-18,13.29-27.1,33.09-27.1h49.51c19.81,0,30.23,9.12,33.1,27.1a57.27,57.27,0,0,1,.52,6.52V217.8h-35.7V122.69a6.43,6.43,0,0,0-.26-2.08c-.78-5.47-3.9-7.82-11.47-7.82H436.44c-7.56,0-10.69,2.35-11.47,7.82V217.8h-35.7Z"/><path class="cls-2" d="M530.32,56.77c0-17.72,15.12-32.06,38-32.06H591V58.85H577.48c-.52,0-1.3.26-1.82.26-6.51,1-9.64,4.69-9.64,10.43v7.55h62.2v35.7H566v105h-35.7Z"/><path class="cls-2" d="M613,24.71a22.3,22.3,0,1,1,.52,31.79,23.06,23.06,0,0,1-6.78-15.37A22.72,22.72,0,0,1,613,24.71ZM611.2,77.09h35.7V217.8H611.2Z"/><path class="cls-2" d="M670.88,110.71a55.07,55.07,0,0,1,.52-6.52c2.86-18,13.28-27.1,33.09-27.1H754c19.81,0,30.23,9.12,33.1,27.1a55.07,55.07,0,0,1,.52,6.52V217.8h-35.7V122.69a6.67,6.67,0,0,0-.25-2.08c-.79-5.47-3.91-7.82-11.48-7.82H718c-7.55,0-10.69,2.35-11.46,7.82V217.8h-35.7Z"/><path class="cls-2" d="M813.58,24.71a22.3,22.3,0,1,1,.52,31.79,23,23,0,0,1-6.77-15.37A22.75,22.75,0,0,1,813.58,24.71Zm-1.82,52.38h35.7V217.8h-35.7Z"/><path class="cls-2" d="M873.12,24.46h35.71V77.09h48.75v35.7H908.83v105H873.12Z"/><path class="cls-2" d="M17.05,234.74H1022.12a5.12,5.12,0,0,0,2.09-.26c5-1,7.29-3.91,8.07-8.34V217.8H986.16c-14.33,0-21.88-3.64-30.49-15.89-3.39-4.95-4.95-10.43-4.95-19.81v-105h35.7v93.8c0,7.57,3.39,11.21,9.64,11.21h25.28a6.46,6.46,0,0,0,2.08-.26c4.95-.78,8.08-3.9,8.86-8.6V77.09h35.44v155a31.53,31.53,0,0,1-.53,7c-2.33,17.2-11.19,27.1-25.79,30.49a34.73,34.73,0,0,1-7.29.77H17.05Z"/><path class="cls-2" d="M240.14,77.05c-32.13,0-51.88,18.08-71.24,36.24l25.4,26.48c12.75-12.31,26.63-24.36,42.93-24.36s29.19,12.94,29.19,31.29c0,17.09-13.35,31.27-30.45,31.27-19.6,0-35.44-19.18-48.37-31.7l.06-.06-25.89-27c-20.36-19.52-44-42.15-74.68-42.15-42.54,0-70.48,32.52-70.48,69.65,0,39.61,27.1,69.64,67.15,69.64,32.13,0,51.89-18.08,71.25-36.25l-25.4-26.48C116.85,165.93,103,178,86.67,178S57.48,165.05,57.48,146.7c0-17.11,13.35-31.29,30.45-31.29,17.92,0,32.69,16,45,28.35,1.16,1.15,2.29,2.28,3.4,3.35l-.06.06,26,27.1c20.33,19.5,44,42.07,74.58,42.07,42.54,0,70.48-32.53,70.48-69.64C307.29,107.07,280.19,77.05,240.14,77.05Z"/></svg>