<svg id="Layer_1" data-name="Layer 1" xmlns="http://www.w3.org/2000/svg" viewBox="0 0 67 51"><defs><style>.cls-1,.cls-2,.cls-3,.cls-4{fill:none;stroke:#000;}.cls-1,.cls-2,.cls-4{stroke-linecap:round;}.cls-1,.cls-3,.cls-4{stroke-linejoin:round;}.cls-1,.cls-2,.cls-3{stroke-width:2px;}.cls-2{stroke-miterlimit:10;}.cls-4{stroke-width:3px;}</style></defs><title>sandblasting-pistol-2</title><polyline class="cls-1" points="32 14 46 14 45 17 46 20 49 19 53 44 64 40 54 20 58 17 57 13 47 5 44 3 39 6 44 6 45 8 42 10 32 10"/><path class="cls-2" d="M39,31" transform="translate(-7 -17)"/><path class="cls-3" d="M39,27" transform="translate(-7 -17)"/><polyline class="cls-1" points="41.11 31.33 42.81 28.95 41.02 23.27 42 21 41.92 17.07"/><polyline class="cls-1" points="24 9 31 9 32 10"/><path class="cls-1" d="M29,26" transform="translate(-7 -17)"/><path class="cls-1" d="M29,32" transform="translate(-7 -17)"/><polyline class="cls-1" points="24 9 23 8 20 8 19 9 19 15 20 16 23 16"/><path class="cls-1" d="M28,33" transform="translate(-7 -17)"/><path class="cls-1" d="M28,26" transform="translate(-7 -17)"/><polyline class="cls-1" points="24 15 31 15 32 14"/><line class="cls-1" x1="23" y1="16" x2="24" y2="15"/><path class="cls-1" d="M27,28" transform="translate(-7 -17)"/><path class="cls-1" d="M29,28" transform="translate(-7 -17)"/><line class="cls-1" x1="24" y1="15" x2="24" y2="9"/><polyline class="cls-1" points="30 16.13 30 22.88 27 22.88 27 16.13"/><line class="cls-1" x1="53" y1="25" x2="56" y2="24"/><line class="cls-1" x1="54" y1="28" x2="57" y2="27"/><line class="cls-1" x1="55" y1="31" x2="58" y2="30"/><line class="cls-1" x1="56" y1="34" x2="59" y2="33"/><path class="cls-1" d="M70,58c2,4,0,6,3,9" transform="translate(-7 -17)"/><path class="cls-4" d="M35.5,40.5c0,7-.5,10.5,3,13,4.5,3.22,9,6,12,13" transform="translate(-7 -17)"/><line class="cls-1" x1="15" y1="9" x2="15" y2="9"/><line class="cls-1" x1="15" y1="15" x2="15" y2="15"/><line class="cls-1" x1="14" y1="12" x2="14" y2="12"/><line class="cls-1" x1="7" y1="12" x2="7" y2="12"/><line class="cls-1" x1="11" y1="12" x2="11" y2="12"/><line class="cls-1" x1="12" y1="7" x2="12" y2="7"/><line class="cls-1" x1="9" y1="5" x2="9" y2="5"/><line class="cls-1" x1="6" y1="3" x2="6" y2="3"/><line class="cls-1" x1="4" y1="12" x2="4" y2="12"/><line class="cls-1" x1="12" y1="17" x2="12" y2="17"/><line class="cls-1" x1="9" y1="19" x2="9" y2="19"/><line class="cls-1" x1="6" y1="21" x2="6" y2="21"/><line class="cls-1" x1="5" y1="17" x2="5" y2="17"/><line class="cls-1" x1="9" y1="15" x2="9" y2="15"/><line class="cls-1" x1="5" y1="7" x2="5" y2="7"/><line class="cls-1" x1="10" y1="9" x2="10" y2="9"/><line class="cls-1" x1="1" y1="12" x2="1" y2="12"/><line class="cls-1" x1="3" y1="1" x2="3" y2="1"/><line class="cls-1" x1="3" y1="23" x2="3" y2="23"/><line class="cls-1" x1="1" y1="16" x2="1" y2="16"/><line class="cls-1" x1="2" y1="20" x2="2" y2="20"/><line class="cls-1" x1="1" y1="8" x2="1" y2="8"/><line class="cls-1" x1="2" y1="4" x2="2" y2="4"/></svg>